<?xml version="1.0" standalone="no"?>
<!DOCTYPE svg PUBLIC "-//W3C//DTD SVG 20010904//EN"
 "http://www.w3.org/TR/2001/REC-SVG-20010904/DTD/svg10.dtd">
<svg version="1.0" xmlns="http://www.w3.org/2000/svg"
 width="100%" height="100%" viewBox="0 0 200.000000 200.000000"
 preserveAspectRatio="xMidYMid meet">

<g transform="translate(0.000000,200.000000) scale(0.100000,-0.100000)"
fill="#0244be" stroke="none">
<path d="M952 1147 c-62 -210 -132 -448 -156 -530 l-44 -147 102 0 103 0 152
517 c84 284 155 522 158 530 4 10 -16 13 -98 13 l-104 0 -113 -383z"/>
<path d="M355 1167 l-350 -163 -3 -80 -3 -80 288 -134 c158 -73 321 -148 361
-166 l72 -33 0 107 0 107 -218 94 c-119 52 -220 97 -224 100 -4 3 93 50 215
103 l222 96 3 106 c1 58 -1 106 -5 106 -4 -1 -165 -74 -358 -163z"/>
<path d="M1282 1225 l3 -107 228 -97 229 -98 -231 -99 -231 -99 0 -107 0 -108
33 15 c17 9 178 82 357 164 l325 148 3 84 3 84 -343 157 c-189 86 -351 160
-361 164 -16 6 -17 -1 -15 -101z"/>
</g>
</svg>
